<svg xmlns="http://www.w3.org/2000/svg" xmlns:xlink="http://www.w3.org/1999/xlink" width="500" zoomAndPan="magnify" viewBox="0 0 375 374.999991" height="500" preserveAspectRatio="xMidYMid meet" version="1.0"><defs><g/><clipPath id="0d89e5ee03"><path d="M 122 87.503906 L 264 87.503906 L 264 230 L 122 230 Z M 122 87.503906 " clip-rule="nonzero"/></clipPath></defs><g clip-path="url(#0d89e5ee03)"><path fill="#e53225" d="M 206.679688 147.453125 C 208.5 156.464844 204.488281 170.941406 198.632812 183.109375 C 183.535156 214.476562 218.449219 230 240.96875 210.410156 C 255.328125 197.925781 264 179.214844 264 158.683594 C 264 131.042969 247.90625 107.1875 224.589844 95.925781 C 239.890625 108.296875 249.101562 123.820312 248.332031 144.550781 C 244.464844 140.457031 239.632812 137.699219 233.691406 136.476562 C 251.148438 157.035156 247.28125 180.4375 237.414062 185.867188 C 229.167969 190.417969 219.304688 185.042969 221.664062 169.347656 C 226.410156 171.679688 229.113281 175.886719 230.703125 181.089844 C 236.335938 163.207031 232.15625 150.152344 218.535156 141.765625 C 223.398438 141.082031 227.746094 142.476562 231.445312 146.398438 C 228.773438 133.433594 222.175781 123.539062 204.832031 122.058594 C 206.933594 119.613281 209.75 117.992188 213.246094 117.195312 C 209.890625 115.6875 206.222656 114.722656 202.101562 114.523438 C 197.183594 117.082031 192.804688 120.238281 188.878906 123.878906 C 196.671875 111.90625 206.480469 101.1875 217.996094 91.546875 C 196.1875 101.074219 174.433594 115.207031 156.691406 132.152344 C 157.6875 147.082031 146.34375 154.84375 146.742188 143.15625 C 135 160.105469 139.519531 172.078125 162.492188 167.699219 C 157.203125 164.996094 160.390625 161.242188 164.851562 161.984375 C 168.519531 162.578125 174.75 162.890625 178.730469 159.59375 C 161.582031 156.808594 181.742188 146.742188 201.132812 150.609375 C 199.511719 145.519531 195.84375 141.679688 190.8125 139.546875 C 199.03125 137.015625 205.199219 140.285156 206.679688 147.453125 Z M 230.535156 210.152344 C 215.152344 209.8125 207.558594 196.445312 208.441406 179.242188 C 200.394531 202.164062 207.988281 216.351562 230.535156 210.152344 Z M 164.140625 137.527344 C 163.460938 139.574219 162.324219 141.367188 161.070312 143.074219 C 161.925781 140.597656 162.523438 138.011719 162.523438 135.253906 L 169.574219 129.453125 L 166.902344 136.617188 Z M 170.964844 182.03125 C 165.820312 179.667969 163.628906 176.398438 163.972656 172.332031 C 175.429688 180.777344 194.621094 166.363281 182.824219 155.328125 C 196.871094 152.742188 199.710938 163.746094 194.28125 172.304688 C 169.660156 211.089844 191.4375 227.8125 210.402344 227.441406 C 204.746094 228.921875 198.773438 229.71875 192.660156 229.71875 C 171.136719 229.71875 151.886719 219.964844 139.121094 204.609375 C 147.394531 208.789062 154.105469 207.453125 160.105469 203.585938 C 115.578125 192.4375 111 144.578125 143.5 108.976562 C 121.550781 139.71875 129.792969 188.910156 170.964844 182.03125 Z M 190.757812 87.507812 C 187.96875 92.230469 185.496094 97.121094 184.015625 102.582031 L 189.449219 102.863281 C 182.027344 106.816406 175.0625 111.59375 168.492188 117.140625 C 173.441406 106.53125 180.378906 96.523438 190.757812 87.507812 Z M 190.757812 87.507812 " fill-opacity="1" fill-rule="evenodd"/></g><g fill="#e8e8e8" fill-opacity="1"><g transform="translate(57.608089, 278.132941)"><g><path d="M 31.0625 0 L 21.21875 0 L 14.84375 -12.34375 L 12.25 -10.796875 L 12.25 0 L 3.484375 0 L 3.484375 -32.28125 L 12.25 -32.28125 L 12.25 -18.265625 C 12.695312 -19.128906 13.585938 -20.503906 14.921875 -22.390625 L 21.703125 -32.28125 L 31.25 -32.28125 L 21.0625 -17.8125 Z M 31.0625 0 "/></g></g></g><g fill="#e8e8e8" fill-opacity="1"><g transform="translate(91.300818, 278.132941)"><g><path d="M 3.484375 0 L 3.484375 -32.28125 L 12.25 -32.28125 L 12.25 0 Z M 3.484375 0 "/></g></g></g><g fill="#e8e8e8" fill-opacity="1"><g transform="translate(109.668593, 278.132941)"><g><path d="M 34.21875 0 L 22.78125 0 L 11 -22.734375 L 10.796875 -22.734375 C 11.078125 -19.160156 11.21875 -16.429688 11.21875 -14.546875 L 11.21875 0 L 3.484375 0 L 3.484375 -32.28125 L 14.875 -32.28125 L 26.625 -9.84375 L 26.765625 -9.84375 C 26.554688 -13.101562 26.453125 -15.71875 26.453125 -17.6875 L 26.453125 -32.28125 L 34.21875 -32.28125 Z M 34.21875 0 "/></g></g></g><g fill="#e8e8e8" fill-opacity="1"><g transform="translate(150.008019, 278.132941)"><g><path d="M 16.453125 -18.90625 L 30.375 -18.90625 L 30.375 -1.5 C 26.59375 -0.207031 22.4375 0.4375 17.90625 0.4375 C 12.925781 0.4375 9.078125 -1.003906 6.359375 -3.890625 C 3.648438 -6.773438 2.296875 -10.890625 2.296875 -16.234375 C 2.296875 -21.441406 3.78125 -25.492188 6.75 -28.390625 C 9.726562 -31.296875 13.894531 -32.75 19.25 -32.75 C 21.28125 -32.75 23.195312 -32.554688 25 -32.171875 C 26.800781 -31.785156 28.375 -31.300781 29.71875 -30.71875 L 26.953125 -23.875 C 24.628906 -25.019531 22.078125 -25.59375 19.296875 -25.59375 C 16.753906 -25.59375 14.785156 -24.765625 13.390625 -23.109375 C 12.003906 -21.453125 11.3125 -19.082031 11.3125 -16 C 11.3125 -12.988281 11.9375 -10.691406 13.1875 -9.109375 C 14.445312 -7.523438 16.265625 -6.734375 18.640625 -6.734375 C 19.929688 -6.734375 21.125 -6.859375 22.21875 -7.109375 L 22.21875 -12.171875 L 16.453125 -12.171875 Z M 16.453125 -18.90625 "/></g></g></g><g fill="#e53225" fill-opacity="1"><g transform="translate(186.111106, 278.132941)"><g><path d="M 17.859375 -25.59375 C 15.785156 -25.59375 14.164062 -24.738281 13 -23.03125 C 11.84375 -21.332031 11.265625 -18.988281 11.265625 -16 C 11.265625 -9.789062 13.625 -6.6875 18.34375 -6.6875 C 19.769531 -6.6875 21.15625 -6.882812 22.5 -7.28125 C 23.84375 -7.675781 25.191406 -8.15625 26.546875 -8.71875 L 26.546875 -1.34375 C 23.847656 -0.15625 20.800781 0.4375 17.40625 0.4375 C 12.53125 0.4375 8.789062 -0.972656 6.1875 -3.796875 C 3.59375 -6.617188 2.296875 -10.703125 2.296875 -16.046875 C 2.296875 -19.390625 2.925781 -22.328125 4.1875 -24.859375 C 5.445312 -27.390625 7.253906 -29.335938 9.609375 -30.703125 C 11.972656 -32.066406 14.753906 -32.75 17.953125 -32.75 C 21.441406 -32.75 24.773438 -31.988281 27.953125 -30.46875 L 25.28125 -23.609375 C 24.09375 -24.160156 22.898438 -24.628906 21.703125 -25.015625 C 20.515625 -25.398438 19.234375 -25.59375 17.859375 -25.59375 Z M 17.859375 -25.59375 "/></g></g></g><g fill="#e53225" fill-opacity="1"><g transform="translate(218.081434, 278.132941)"><g><path d="M 33.6875 -16.1875 C 33.6875 -10.75 32.351562 -6.617188 29.6875 -3.796875 C 27.03125 -0.972656 23.132812 0.4375 18 0.4375 C 12.9375 0.4375 9.050781 -0.976562 6.34375 -3.8125 C 3.644531 -6.65625 2.296875 -10.796875 2.296875 -16.234375 C 2.296875 -21.597656 3.640625 -25.695312 6.328125 -28.53125 C 9.015625 -31.363281 12.914062 -32.78125 18.03125 -32.78125 C 23.175781 -32.78125 27.070312 -31.375 29.71875 -28.5625 C 32.363281 -25.757812 33.6875 -21.632812 33.6875 -16.1875 Z M 11.484375 -16.1875 C 11.484375 -9.945312 13.65625 -6.828125 18 -6.828125 C 20.207031 -6.828125 21.84375 -7.582031 22.90625 -9.09375 C 23.976562 -10.613281 24.515625 -12.976562 24.515625 -16.1875 C 24.515625 -19.40625 23.972656 -21.785156 22.890625 -23.328125 C 21.804688 -24.867188 20.1875 -25.640625 18.03125 -25.640625 C 13.664062 -25.640625 11.484375 -22.488281 11.484375 -16.1875 Z M 11.484375 -16.1875 "/></g></g></g><g fill="#e53225" fill-opacity="1"><g transform="translate(256.742627, 278.132941)"><g><path d="M 30.890625 -16.828125 C 30.890625 -11.441406 29.40625 -7.289062 26.4375 -4.375 C 23.46875 -1.457031 19.300781 0 13.9375 0 L 3.484375 0 L 3.484375 -32.28125 L 14.65625 -32.28125 C 19.84375 -32.28125 23.84375 -30.953125 26.65625 -28.296875 C 29.476562 -25.648438 30.890625 -21.828125 30.890625 -16.828125 Z M 21.84375 -16.515625 C 21.84375 -19.472656 21.253906 -21.664062 20.078125 -23.09375 C 18.910156 -24.519531 17.132812 -25.234375 14.75 -25.234375 L 12.203125 -25.234375 L 12.203125 -7.15625 L 14.15625 -7.15625 C 16.800781 -7.15625 18.742188 -7.921875 19.984375 -9.453125 C 21.222656 -10.992188 21.84375 -13.347656 21.84375 -16.515625 Z M 21.84375 -16.515625 "/></g></g></g><g fill="#e53225" fill-opacity="1"><g transform="translate(292.555229, 278.132941)"><g><path d="M 22.65625 0 L 3.484375 0 L 3.484375 -32.28125 L 22.65625 -32.28125 L 22.65625 -25.28125 L 12.203125 -25.28125 L 12.203125 -20.203125 L 21.875 -20.203125 L 21.875 -13.203125 L 12.203125 -13.203125 L 12.203125 -7.109375 L 22.65625 -7.109375 Z M 22.65625 0 "/></g></g></g></svg>