<svg xmlns="http://www.w3.org/2000/svg" xmlns:xlink="http://www.w3.org/1999/xlink" width="500" zoomAndPan="magnify" viewBox="0 0 375 374.999991" height="500" preserveAspectRatio="xMidYMid meet" version="1.0"><defs><g/><clipPath id="c59ab5aa3c"><path d="M 97 37.5 L 293.335938 37.5 L 293.335938 234 L 97 234 Z M 97 37.5 " clip-rule="nonzero"/></clipPath></defs><g clip-path="url(#c59ab5aa3c)"><path fill="#e53225" d="M 214.097656 120.164062 C 216.613281 132.59375 211.070312 152.554688 202.972656 169.335938 C 182.101562 212.589844 230.367188 234 261.5 206.980469 C 281.347656 189.765625 293.335938 163.964844 293.335938 135.652344 C 293.335938 97.535156 271.089844 64.636719 238.859375 49.105469 C 260.003906 66.164062 272.738281 87.574219 271.679688 116.164062 C 266.332031 110.515625 259.652344 106.710938 251.4375 105.027344 C 275.570312 133.378906 270.222656 165.652344 256.585938 173.140625 C 245.1875 179.414062 231.546875 172.003906 234.808594 150.355469 C 241.375 153.574219 245.109375 159.375 247.308594 166.550781 C 255.089844 141.886719 249.3125 123.886719 230.488281 112.320312 C 237.207031 111.378906 243.222656 113.300781 248.332031 118.710938 C 244.636719 100.832031 235.519531 87.183594 211.542969 85.144531 C 214.449219 81.773438 218.339844 79.539062 223.175781 78.4375 C 218.539062 76.359375 213.46875 75.027344 207.769531 74.753906 C 200.96875 78.28125 194.917969 82.636719 189.492188 87.65625 C 200.261719 71.144531 213.820312 56.363281 229.738281 43.066406 C 199.59375 56.203125 169.523438 75.695312 145 99.066406 C 146.375 119.652344 130.691406 130.359375 131.242188 114.242188 C 115.007812 137.613281 121.257812 154.121094 153.015625 148.082031 C 145.707031 144.355469 150.109375 139.179688 156.28125 140.199219 C 161.351562 141.023438 169.957031 141.457031 175.460938 136.90625 C 151.757812 133.0625 179.625 119.183594 206.433594 124.515625 C 204.191406 117.496094 199.121094 112.203125 192.164062 109.261719 C 203.523438 105.769531 212.054688 110.28125 214.097656 120.164062 Z M 247.074219 206.628906 C 225.808594 206.160156 215.316406 187.726562 216.535156 164.003906 C 205.410156 195.609375 215.90625 215.175781 247.074219 206.628906 Z M 155.296875 106.476562 C 154.351562 109.300781 152.78125 111.769531 151.050781 114.125 C 152.230469 110.710938 153.054688 107.144531 153.054688 103.339844 L 162.804688 95.339844 L 159.109375 105.222656 Z M 164.730469 167.847656 C 157.617188 164.589844 154.589844 160.082031 155.0625 154.472656 C 170.902344 166.121094 197.429688 146.238281 181.121094 131.023438 C 200.535156 127.457031 204.46875 142.632812 196.960938 154.433594 C 162.921875 207.921875 193.03125 230.980469 219.246094 230.472656 C 211.425781 232.511719 203.171875 233.609375 194.71875 233.609375 C 164.964844 233.609375 138.355469 220.15625 120.707031 198.980469 C 132.144531 204.746094 141.421875 202.902344 149.714844 197.570312 C 88.164062 182.199219 81.835938 116.203125 126.761719 67.105469 C 96.417969 109.496094 107.816406 177.335938 164.730469 167.847656 Z M 192.085938 37.5 C 188.234375 44.007812 184.816406 50.753906 182.769531 58.285156 L 190.277344 58.675781 C 180.019531 64.125 170.390625 70.714844 161.308594 78.359375 C 168.148438 63.734375 177.738281 49.929688 192.085938 37.5 Z M 192.085938 37.5 " fill-opacity="1" fill-rule="evenodd"/></g><g fill="#e8e8e8" fill-opacity="1"><g transform="translate(8.087977, 300.802879)"><g><path d="M 42.921875 0 L 29.3125 0 L 20.5 -17.046875 L 16.921875 -14.921875 L 16.921875 0 L 4.8125 0 L 4.8125 -44.59375 L 16.921875 -44.59375 L 16.921875 -25.21875 C 17.535156 -26.425781 18.769531 -28.328125 20.625 -30.921875 L 29.984375 -44.59375 L 43.15625 -44.59375 L 29.09375 -24.609375 Z M 42.921875 0 "/></g></g></g><g fill="#e8e8e8" fill-opacity="1"><g transform="translate(54.625752, 300.802879)"><g><path d="M 4.8125 0 L 4.8125 -44.59375 L 16.921875 -44.59375 L 16.921875 0 Z M 4.8125 0 "/></g></g></g><g fill="#e8e8e8" fill-opacity="1"><g transform="translate(79.996075, 300.802879)"><g><path d="M 47.28125 0 L 31.484375 0 L 15.1875 -31.421875 L 14.921875 -31.421875 C 15.304688 -26.472656 15.5 -22.695312 15.5 -20.09375 L 15.5 0 L 4.8125 0 L 4.8125 -44.59375 L 20.5625 -44.59375 L 36.78125 -13.609375 L 36.96875 -13.609375 C 36.6875 -18.097656 36.546875 -21.707031 36.546875 -24.4375 L 36.546875 -44.59375 L 47.28125 -44.59375 Z M 47.28125 0 "/></g></g></g><g fill="#e8e8e8" fill-opacity="1"><g transform="translate(135.714539, 300.802879)"><g><path d="M 22.71875 -26.109375 L 41.96875 -26.109375 L 41.96875 -2.078125 C 36.738281 -0.285156 30.992188 0.609375 24.734375 0.609375 C 17.859375 0.609375 12.546875 -1.378906 8.796875 -5.359375 C 5.046875 -9.347656 3.171875 -15.035156 3.171875 -22.421875 C 3.171875 -29.617188 5.222656 -35.21875 9.328125 -39.21875 C 13.441406 -43.226562 19.195312 -45.234375 26.59375 -45.234375 C 29.40625 -45.234375 32.054688 -44.96875 34.546875 -44.4375 C 37.035156 -43.914062 39.207031 -43.242188 41.0625 -42.421875 L 37.25 -32.96875 C 34.03125 -34.5625 30.5 -35.359375 26.65625 -35.359375 C 23.132812 -35.359375 20.414062 -34.210938 18.5 -31.921875 C 16.582031 -29.628906 15.625 -26.359375 15.625 -22.109375 C 15.625 -17.941406 16.488281 -14.765625 18.21875 -12.578125 C 19.957031 -10.390625 22.46875 -9.296875 25.75 -9.296875 C 27.53125 -9.296875 29.175781 -9.472656 30.6875 -9.828125 L 30.6875 -16.8125 L 22.71875 -16.8125 Z M 22.71875 -26.109375 "/></g></g></g><g fill="#e53225" fill-opacity="1"><g transform="translate(185.5816, 300.802879)"><g><path d="M 24.671875 -35.359375 C 21.804688 -35.359375 19.570312 -34.179688 17.96875 -31.828125 C 16.363281 -29.484375 15.5625 -26.242188 15.5625 -22.109375 C 15.5625 -13.535156 18.820312 -9.25 25.34375 -9.25 C 27.320312 -9.25 29.234375 -9.519531 31.078125 -10.0625 C 32.929688 -10.613281 34.789062 -11.273438 36.65625 -12.046875 L 36.65625 -1.859375 C 32.9375 -0.210938 28.726562 0.609375 24.03125 0.609375 C 17.300781 0.609375 12.140625 -1.34375 8.546875 -5.25 C 4.960938 -9.15625 3.171875 -14.796875 3.171875 -22.171875 C 3.171875 -26.785156 4.039062 -30.84375 5.78125 -34.34375 C 7.519531 -37.84375 10.019531 -40.53125 13.28125 -42.40625 C 16.539062 -44.289062 20.378906 -45.234375 24.796875 -45.234375 C 29.617188 -45.234375 34.222656 -44.1875 38.609375 -42.09375 L 34.921875 -32.609375 C 33.273438 -33.378906 31.628906 -34.03125 29.984375 -34.5625 C 28.335938 -35.09375 26.566406 -35.359375 24.671875 -35.359375 Z M 24.671875 -35.359375 "/></g></g></g><g fill="#e53225" fill-opacity="1"><g transform="translate(229.740325, 300.802879)"><g><path d="M 46.546875 -22.359375 C 46.546875 -14.859375 44.703125 -9.15625 41.015625 -5.25 C 37.335938 -1.34375 31.953125 0.609375 24.859375 0.609375 C 17.859375 0.609375 12.492188 -1.347656 8.765625 -5.265625 C 5.035156 -9.191406 3.171875 -14.910156 3.171875 -22.421875 C 3.171875 -29.835938 5.023438 -35.503906 8.734375 -39.421875 C 12.453125 -43.335938 17.847656 -45.296875 24.921875 -45.296875 C 32.015625 -45.296875 37.390625 -43.351562 41.046875 -39.46875 C 44.710938 -35.582031 46.546875 -29.878906 46.546875 -22.359375 Z M 15.859375 -22.359375 C 15.859375 -13.734375 18.859375 -9.421875 24.859375 -9.421875 C 27.910156 -9.421875 30.171875 -10.46875 31.640625 -12.5625 C 33.117188 -14.65625 33.859375 -17.921875 33.859375 -22.359375 C 33.859375 -26.804688 33.109375 -30.09375 31.609375 -32.21875 C 30.117188 -34.34375 27.890625 -35.40625 24.921875 -35.40625 C 18.878906 -35.40625 15.859375 -31.054688 15.859375 -22.359375 Z M 15.859375 -22.359375 "/></g></g></g><g fill="#e53225" fill-opacity="1"><g transform="translate(283.140747, 300.802879)"><g><path d="M 42.671875 -23.25 C 42.671875 -15.800781 40.617188 -10.0625 36.515625 -6.03125 C 32.421875 -2.007812 26.664062 0 19.25 0 L 4.8125 0 L 4.8125 -44.59375 L 20.25 -44.59375 C 27.40625 -44.59375 32.929688 -42.757812 36.828125 -39.09375 C 40.722656 -35.4375 42.671875 -30.15625 42.671875 -23.25 Z M 30.171875 -22.8125 C 30.171875 -26.90625 29.359375 -29.9375 27.734375 -31.90625 C 26.117188 -33.875 23.664062 -34.859375 20.375 -34.859375 L 16.875 -34.859375 L 16.875 -9.875 L 19.546875 -9.875 C 23.210938 -9.875 25.898438 -10.9375 27.609375 -13.0625 C 29.316406 -15.1875 30.171875 -18.4375 30.171875 -22.8125 Z M 30.171875 -22.8125 "/></g></g></g><g fill="#e53225" fill-opacity="1"><g transform="translate(332.606577, 300.802879)"><g><path d="M 31.296875 0 L 4.8125 0 L 4.8125 -44.59375 L 31.296875 -44.59375 L 31.296875 -34.921875 L 16.875 -34.921875 L 16.875 -27.90625 L 30.234375 -27.90625 L 30.234375 -18.234375 L 16.875 -18.234375 L 16.875 -9.828125 L 31.296875 -9.828125 Z M 31.296875 0 "/></g></g></g></svg>